# xmcd
# 
# Track frame offsets:
#     150
#     18250
#     37130
#     56512
#     71622
#     88427
#     106152
#     128125
#     142000
#     161697
# 
# Disc length: 2426
# 
# Revision: 3
# Processed by: cddbd v1.5.2PL0 Copyright (c) Steve Scherf et al.
# Submitted via: fre:ac v1.0.31
# 
DISCID=8d09780a
DTITLE=Pino Daniele - Mascalzone Latino
DYEAR=1989
DGENRE=Blues
TTITLE0=Anna Verrà
TTITLE1=Faccia Gialla
TTITLE2=N'ata Stagione
TTITLE3='A Speranza È Semp' Sola
TTITLE4=Carte E Cartuscelle
TTITLE5=Ammore Scumbinato
TTITLE6='O 'Mericano
TTITLE7=Aria Strana
TTITLE8=Giungla
TTITLE9=Sambaccussì
EXTD=
EXTT0=
EXTT1=
EXTT2=
EXTT3=
EXTT4=
EXTT5=
EXTT6=
EXTT7=
EXTT8=
EXTT9=
PLAYORDER=
